<svg width="32" height="45" viewBox="0 0 32 45" fill="none" xmlns="http://www.w3.org/2000/svg">
<g clip-path="url(#clip0_30_148)">
<path d="M15.9362 44.8864L2.94951 41.2811L0.0554199 8.82129H31.8558L28.9588 41.2761L15.9362 44.8864V44.8864Z" fill="#264DE4"/>
<path d="M26.4785 39.2095L28.9541 11.4753H15.9556V42.1268L26.4785 39.2095V39.2095Z" fill="#2965F1"/>
<path d="M6.69015 23.5143L7.04691 27.4954H15.9558V23.5143H6.69015ZM5.97314 15.4565L6.33501 19.4376H15.9558V15.4565H5.97314V15.4565ZM15.9558 33.8536L15.9383 33.8582L11.5047 32.661L11.2212 29.4859H7.22479L7.78249 35.7368L15.9375 38.0005L15.9558 37.9956V33.8536Z" fill="#EBEBEB"/>
<path d="M7.53955 0H12.3612V2.0164H9.55595V4.0328H12.3614V6.04907H7.53955V0ZM13.3256 0H18.1473V1.75338H15.342V2.10403H18.1473V6.13683H13.3257V4.29557H16.1311V3.94492H13.3255V0H13.3256ZM19.1118 0H23.9335V1.75338H21.1282V2.10403H23.9335V6.13683H19.1118V4.29557H21.9171V3.94492H19.1119V0H19.1118Z" fill="black"/>
<path d="M25.1959 23.5143L25.9146 15.4565H15.942V19.4376H21.5517L21.1894 23.5143H15.942V27.4954H20.8443L20.3821 32.6585L15.9419 33.8569V37.9987L24.1033 35.7368L24.1632 35.0642L25.0988 24.5833L25.1959 23.5143V23.5143Z" fill="white"/>
</g>
<defs>
<clipPath id="clip0_30_148">
<rect width="31.9114" height="45" fill="white"/>
</clipPath>
</defs>
</svg>
