<svg width="32" height="45" viewBox="0 0 32 45" fill="none" xmlns="http://www.w3.org/2000/svg">
<g clip-path="url(#clip0_30_142)">
<path d="M31.8558 8.82129L28.9588 41.2761L15.9362 44.8864L2.94951 41.2811L0.0554199 8.82129H31.8558Z" fill="#E44D26"/>
<path d="M15.9556 42.1268L26.4785 39.2096L28.9541 11.4753H15.9556V42.1268Z" fill="#F16529"/>
<path d="M10.3239 19.4376H15.9558V15.4565H5.97314L6.06838 16.5246L7.04691 27.4954H15.9558V23.5143H10.6878L10.3239 19.4376V19.4376ZM11.2212 29.4859H7.22479L7.78249 35.7368L15.9375 38.0005L15.9558 37.9956V33.8536L15.9383 33.8582L11.5047 32.661L11.2212 29.4859Z" fill="#EBEBEB"/>
<path d="M3.01416 0H5.03729V1.99882H6.88802V0H8.91128V6.05294H6.88815V4.02607H5.03741V6.05294H3.01428V0H3.01416ZM11.5716 2.0073H9.79084V0H15.3771V2.0073H13.5951V6.05294H11.572V2.0073H11.5719H11.5716ZM16.2636 0H18.3731L19.6708 2.12684L20.9672 0H23.0776V6.05294H21.0626V3.05277L19.6708 5.20492H19.6359L18.2431 3.05277V6.05294H16.2636V0ZM24.0844 0H26.1081V4.05224H28.9532V6.05294H24.0843V0H24.0844Z" fill="black"/>
<path d="M15.942 27.4954H20.8443L20.3821 32.6585L15.9419 33.8569V37.9987L24.1033 35.7368L24.1632 35.0642L25.0988 24.5833L25.1959 23.5143H15.942V27.4954ZM15.942 19.4279V19.4376H25.5582L25.638 18.5428L25.8195 16.5246L25.9146 15.4565H15.942V19.428V19.4279Z" fill="white"/>
</g>
<defs>
<clipPath id="clip0_30_142">
<rect width="31.9114" height="45" fill="white"/>
</clipPath>
</defs>
</svg>
