<svg width="42" height="42" viewBox="0 0 42 42" fill="none" xmlns="http://www.w3.org/2000/svg">
<path d="M41 1L36 36.1515L21 41L6 36.1515L1 1H41Z" stroke="black" stroke-width="2" stroke-linecap="round" stroke-linejoin="round"/>
<path d="M9.75024 10.6965H17.2502V30.0905L12.2502 27.6662M32.2502 10.6965H26.0002C25.6687 10.6965 25.3508 10.8242 25.1164 11.0516C24.8819 11.2789 24.7502 11.5872 24.7502 11.9087V19.1814C24.7502 19.5029 24.8819 19.8112 25.1164 20.0385C25.3508 20.2658 25.6687 20.3935 26.0002 20.3935H29.5577C29.7367 20.3935 29.9135 20.4308 30.0763 20.5028C30.2391 20.5748 30.384 20.6799 30.5013 20.8109C30.6187 20.9418 30.7056 21.0957 30.7563 21.2621C30.807 21.4285 30.8203 21.6035 30.7952 21.7753L29.7502 28.8784L24.7502 30.0905" stroke="black" stroke-width="2" stroke-linecap="round" stroke-linejoin="round"/>
</svg>
