<svg width="40" height="40" viewBox="0 0 40 40" fill="none" xmlns="http://www.w3.org/2000/svg">
<g clip-path="url(#clip0_30_139)">
<path d="M33.3594 0H6.64062C2.97311 0 0 3.04446 0 6.8V33.136C0 36.8915 2.97311 39.936 6.64062 39.936H33.3594C37.0269 39.936 40 36.8915 40 33.136V6.8C40 3.04446 37.0269 0 33.3594 0Z" fill="#330000"/>
<path d="M19.3835 23.9664H13.1851L11.9238 27.9781C11.9067 28.0512 11.8651 28.116 11.8063 28.1611C11.7476 28.2063 11.6752 28.229 11.6018 28.2254H8.46229C8.28338 28.2254 8.22073 28.1246 8.27448 27.923L13.6412 12.0962C13.6948 11.9314 13.7485 11.7437 13.8021 11.533C13.8724 11.1662 13.9084 10.7938 13.9095 10.4202C13.9058 10.394 13.9082 10.3674 13.9163 10.3423C13.9245 10.3173 13.9382 10.2945 13.9564 10.2758C13.9746 10.2572 13.9968 10.2431 14.0213 10.2347C14.0457 10.2264 14.0718 10.224 14.0973 10.2277H18.3638C18.4888 10.2277 18.5604 10.2736 18.5785 10.3653L24.6696 27.9505C24.7234 28.1339 24.6696 28.2256 24.5087 28.2254H21.0203C20.9604 28.2322 20.9001 28.2165 20.8507 28.1811C20.8013 28.1457 20.7662 28.0931 20.752 28.0331L19.3835 23.9664V23.9664ZM14.151 20.5043H18.3907L18.3303 20.3L18.2332 19.9765L18.164 19.7493L18.0535 19.3915L17.8187 18.6384L17.6121 17.9707L17.0757 16.2315C16.9422 15.7992 16.8141 15.3651 16.6914 14.9294L16.5932 14.5758L16.4785 14.1578L16.3035 13.5098L16.2707 13.3877H16.244C16.1097 14.0472 15.9462 14.7002 15.754 15.3445L15.3559 16.6558L15.1368 17.3803L14.9157 18.1138C14.8757 18.2462 14.836 18.3773 14.7962 18.5067L14.6774 18.8904L14.5593 19.2651L14.4418 19.6306L14.3249 19.9869C14.2862 20.1042 14.2474 20.2198 14.2089 20.3341L14.151 20.5043V20.5043ZM28.2918 13.1403C28.0181 13.1516 27.7452 13.1035 27.4909 12.9994C27.2366 12.8952 27.0066 12.7373 26.816 12.5358C26.6259 12.3257 26.4783 12.0791 26.3816 11.8103C26.2849 11.5415 26.241 11.2558 26.2524 10.9696C26.2427 10.6862 26.2915 10.404 26.3955 10.1412C26.4995 9.87851 26.6565 9.64119 26.8562 9.44479C27.2414 9.06617 27.7543 8.85429 28.2882 8.85327L28.3454 8.85391C28.9895 8.85391 29.4949 9.05071 29.8617 9.44463C30.0468 9.6493 30.1906 9.88935 30.285 10.151C30.3794 10.4127 30.4224 10.6909 30.4117 10.9696C30.4229 11.2569 30.3776 11.5437 30.2785 11.8128C30.1794 12.0819 30.0285 12.3278 29.8348 12.536C29.6392 12.7334 29.407 12.8888 29.1518 12.9929C28.8967 13.0971 28.6238 13.1479 28.3492 13.1424L28.2918 13.1403V13.1403ZM26.4403 27.9505V14.8165C26.4403 14.6517 26.5115 14.5691 26.6549 14.5691H29.9556C30.0985 14.5691 30.1701 14.6515 30.1703 14.8165V27.9505C30.1703 28.1339 30.0987 28.2256 29.9556 28.2254H26.6818C26.5293 28.2254 26.449 28.1432 26.441 27.9787L26.4403 27.9505Z" fill="#FF9A00"/>
</g>
<defs>
<clipPath id="clip0_30_139">
<rect width="40" height="40" fill="white"/>
</clipPath>
</defs>
</svg>
