<svg width="16" height="16" viewBox="0 0 16 16" fill="none" xmlns="http://www.w3.org/2000/svg">
<path d="M6.91406 4C6.10677 4 5.34115 4.15104 4.61719 4.45312C3.89323 4.75521 3.24479 5.1901 2.67188 5.75781C2.10417 6.32552 1.66927 6.97135 1.36719 7.69531C1.0651 8.41927 0.914062 9.1875 0.914062 10C0.914062 10.5521 0.984375 11.0833 1.125 11.5938C1.26562 12.1042 1.46875 12.5807 1.73438 13.0234C2 13.4661 2.3125 13.8724 2.67188 14.2422C3.03125 14.612 3.4349 14.9245 3.88281 15.1797C4.33073 15.4349 4.8099 15.6354 5.32031 15.7812C5.83073 15.9271 6.36198 16 6.91406 16H13.9141V15H6.91406C6.45573 15 6.01302 14.9401 5.58594 14.8203C5.15885 14.7005 4.76042 14.5339 4.39062 14.3203C4.02083 14.1068 3.6849 13.8464 3.38281 13.5391C3.08073 13.2318 2.82031 12.8932 2.60156 12.5234C2.38281 12.1536 2.21354 11.7552 2.09375 11.3281C1.97396 10.901 1.91406 10.4583 1.91406 10C1.91406 9.54167 1.97396 9.09896 2.09375 8.67188C2.21354 8.24479 2.38021 7.84635 2.59375 7.47656C2.80729 7.10677 3.06771 6.77083 3.375 6.46875C3.68229 6.16667 4.02083 5.90625 4.39062 5.6875C4.76042 5.46875 5.15885 5.29948 5.58594 5.17969C6.01302 5.0599 6.45573 5 6.91406 5H13.3281L10 8.33594L10.5781 8.91406L15 4.5L10.5781 0.0859375L10 0.664062L13.3281 4H6.91406Z" fill="black"/>
</svg>
