<svg width="40" height="40" viewBox="0 0 40 40" fill="none" xmlns="http://www.w3.org/2000/svg">
<g clip-path="url(#clip0_257_2)">
<path d="M33.3594 0H6.64062C2.97311 0 0 3.04446 0 6.8V33.136C0 36.8915 2.97311 39.936 6.64062 39.936H33.3594C37.0269 39.936 40 36.8915 40 33.136V6.8C40 3.04446 37.0269 0 33.3594 0Z" fill="#001E36"/>
<path d="M9.00684 28.0057V10.4476C9.00684 10.3196 9.06059 10.2553 9.16793 10.2553L9.33777 10.2548L9.62809 10.2516L10.0315 10.2434L11.3831 10.2141L12.8323 10.1866C13.342 10.1777 13.8473 10.1729 14.3482 10.1729C15.7076 10.1729 16.8525 10.3469 17.7829 10.6949C18.6222 10.9856 19.3877 11.4644 20.0236 12.0962C20.5626 12.6439 20.9791 13.3049 21.2445 14.0335C21.4955 14.7425 21.6227 15.4912 21.6203 16.2453C21.6203 17.7111 21.2892 18.9201 20.6273 19.8724C19.9799 20.8014 19.0769 21.512 18.0336 21.9133L17.944 21.9469C16.8545 22.3631 15.6479 22.5135 14.3246 22.5229L14.119 22.5236L13.8139 22.522L13.66 22.5197L13.4884 22.5156L13.385 22.5114L13.3221 22.5081L13.1676 22.5023L12.9787 22.4983L12.6943 22.4962L12.6311 22.4961V27.9781C12.6358 28.0117 12.6328 28.046 12.6223 28.0782C12.6118 28.1104 12.5941 28.1397 12.5707 28.1637C12.5473 28.1877 12.5187 28.2058 12.4872 28.2165C12.4558 28.2272 12.4223 28.2303 12.3895 28.2255H9.1948C9.06934 28.2255 9.00684 28.1525 9.00684 28.0057V28.0057ZM12.6312 13.5525V19.2793C12.8454 19.2969 13.0601 19.3061 13.275 19.3068H14.1606C14.7712 19.3047 15.3782 19.2116 15.9626 19.0305L16.0792 18.9932C16.6108 18.8315 17.0859 18.5167 17.4478 18.0863C17.784 17.6802 17.9582 17.1207 17.9703 16.4076L17.9711 16.3277C17.9851 15.7962 17.8501 15.2717 17.5818 14.8165C17.2999 14.3763 16.8923 14.0357 16.4146 13.841C15.7909 13.5928 15.1246 13.476 14.4557 13.4977L14.1154 13.4986L13.9007 13.5005L13.6959 13.5033L13.4068 13.509L13.1959 13.5151L13.0864 13.5193L12.94 13.5263L12.8153 13.5341L12.7442 13.5399L12.6828 13.546L12.6557 13.5492L12.6312 13.5525V13.5525ZM31.9953 18.238C31.5272 17.9917 31.0307 17.8066 30.5175 17.6873L30.3987 17.661C29.8341 17.5283 29.2577 17.4553 28.6786 17.4429L28.5339 17.4412C28.1943 17.4318 27.8553 17.4734 27.5276 17.5649C27.319 17.6124 27.1335 17.734 27.0042 17.9082C26.9167 18.0476 26.8702 18.2097 26.8701 18.3754C26.875 18.5361 26.9316 18.6906 27.0311 18.8149C27.1735 18.9855 27.3447 19.1284 27.5365 19.2369L27.5946 19.2684C27.9772 19.4793 28.3714 19.6674 28.7753 19.8316C29.6758 20.1403 30.5363 20.5601 31.3378 21.0818C31.8838 21.4347 32.3357 21.921 32.6528 22.497C32.9193 23.0423 33.0528 23.6457 33.0418 24.2554C33.0579 25.0607 32.8332 25.8517 32.3978 26.5225C31.9317 27.2032 31.2843 27.7325 30.5328 28.0473C29.7457 28.4015 28.7792 28.5844 27.6332 28.5964L27.5142 28.597C26.8038 28.6044 26.0944 28.5407 25.3961 28.4069L25.2467 28.3772C24.6587 28.2668 24.0864 28.0822 23.5428 27.8276C23.4881 27.7987 23.442 27.7555 23.409 27.7023C23.376 27.6492 23.3573 27.5881 23.355 27.5252V24.5303C23.3517 24.5012 23.3563 24.4718 23.3681 24.4452C23.38 24.4185 23.3986 24.3957 23.4221 24.3791C23.4452 24.3658 23.4716 24.3599 23.498 24.3624C23.5243 24.3649 23.5493 24.3755 23.5696 24.3929C24.2116 24.7805 24.9087 25.0632 25.6357 25.2309C26.2766 25.3955 26.934 25.4831 27.5946 25.4921C28.2206 25.4921 28.6812 25.4095 28.9765 25.2447C29.1099 25.1822 29.2227 25.0814 29.3013 24.9546C29.3798 24.8279 29.4209 24.6805 29.4193 24.5303C29.4193 24.2925 29.2851 24.0634 29.0168 23.8434C28.9043 23.7513 28.7429 23.6509 28.5329 23.5426L28.4325 23.4921L28.3253 23.4404L28.269 23.4141L28.1512 23.3607C28.1308 23.3516 28.1103 23.3425 28.0898 23.3335L27.9617 23.2785L27.895 23.2505L27.7565 23.1937L27.6846 23.1649L27.5357 23.1061L27.38 23.0465C26.5374 22.7462 25.7385 22.3302 25.0051 21.81C24.4806 21.4364 24.0488 20.9424 23.744 20.3674C23.4801 19.826 23.3467 19.2277 23.355 18.6226C23.3535 17.8956 23.5485 17.1823 23.9184 16.5618C24.3403 15.8786 24.9459 15.3346 25.6626 14.9957C26.4496 14.593 27.4334 14.3914 28.6142 14.3911C29.3058 14.3854 29.9967 14.436 30.6804 14.5423C31.1755 14.6066 31.6596 14.7407 32.1189 14.9407C32.1928 14.9625 32.2523 15.0183 32.2798 15.0919C32.2981 15.1589 32.307 15.2282 32.3067 15.298V18.0732C32.3106 18.1388 32.2798 18.2017 32.2262 18.238C32.1903 18.2562 32.1508 18.2657 32.1107 18.2657C32.0707 18.2657 32.0312 18.2562 31.9953 18.238V18.238Z" fill="#31A8FF"/>
</g>
<defs>
<clipPath id="clip0_257_2">
<rect width="40" height="40" fill="white"/>
</clipPath>
</defs>
</svg>
